<?xml version="1.0" encoding="utf-8"?>
<!-- Generator: Adobe Illustrator 25.0.0, SVG Export Plug-In . SVG Version: 6.00 Build 0)  -->
<svg version="1.1" id="Capa_1" xmlns="http://www.w3.org/2000/svg" xmlns:xlink="http://www.w3.org/1999/xlink" x="0px" y="0px"
	 viewBox="0 0 795.95 493.86" style="enable-background:new 0 0 795.95 493.86;" xml:space="preserve">
<style type="text/css">
	.st0{fill:#282828;}
</style>
<g>
	<path class="st0" d="M86.97,89.93c-6.09,47.1-12.09,93.52-18.12,139.96c-9.43,72.65-18.89,145.29-28.37,217.92
		c-2.3,17.42,5.48,28.28,22.94,28.46c41.27,0.43,82.55,0.37,123.82-0.17c15.56-0.2,26.04-11.23,28.23-26.88
		c6.86-49.97,13.77-99.93,20.73-149.88c7.2-52.3,14.38-104.62,21.53-156.93c2.38-17.23,4.95-34.41,7.54-52.48L86.97,89.93
		L86.97,89.93z M166.78,181.48c-13.94,0.17-25.38-11-25.55-24.95c-0.17-13.94,11-25.38,24.95-25.55c0.31,0,0.61,0,0.92,0.01
		c13.95,0.12,25.59,11.16,25.69,24.33C192.71,169.68,181.13,181.32,166.78,181.48z"/>
	<path class="st0" d="M301.7,89.87c-2.85,19.53-5.78,38.54-8.37,57.59c-8.15,60.29-16.09,120.61-24.24,180.91
		c-5.48,40.58-11.27,81.12-16.74,121.7c-2.05,15.28,7.36,25.81,22.94,26.2c7.44,0.19,14.88,0.13,22.27,0.18
		c75.14,0.45,135.98-53.44,146.11-127.98c9.66-70.84,20.53-141.52,30.86-212.32c2.21-15.16,4.42-30.31,6.74-46.28L301.7,89.87z
		 M380.96,181.55c-13.23-0.38-24.9-12.66-24.45-25.75c0.48-14.42,11.68-25.11,26.04-24.89c14.36,0.22,25.52,11.02,25.51,24.41
		C408.04,169.63,395.3,181.96,380.96,181.55L380.96,181.55z"/>
	<path class="st0" d="M489.28,308.08c4.51-30.91,8.82-60.82,13.26-90.71c8.55-57.51,17.14-115.02,25.76-172.51
		c2.7-18.08,13.18-27.42,31.24-27.45c45.72-0.06,91.44,0,137.16-0.07c8.58,0,17.13,0.1,21.52,9.04c4.65,9.49,2.54,19.04-3.51,26.85
		c-8.87,11.48-18.81,22.13-28.43,33.03c-40.66,46.04-81.36,92.04-122.08,138.03C539.63,251.95,514.88,279.48,489.28,308.08z"/>
	<path class="st0" d="M90.18,68.76c1.48-10.23,2.28-20.25,4.49-29.98c2.76-12.39,13.66-21.27,26.36-21.46
		c51.1-0.12,102.2,0.07,153.31,0.16c1.36,0.09,2.71,0.27,4.05,0.52c-3.03,16.15-5.88,32.1-9.23,47.93
		c-0.35,1.66-3.72,3.83-5.65,3.84c-56.42,0.09-112.87,0.03-169.34-0.2C92.82,69.42,91.48,69.15,90.18,68.76z"/>
	<path class="st0" d="M304.91,69.04c1.71-10.23,2.79-20.27,5.14-29.98c3.28-13.48,13.94-21.52,28-21.57
		c45.14-0.16,90.27-0.19,135.41-0.11c12.62,0,18.75,7.15,16.96,19.39c-1.32,9.1-2.62,18.25-4.78,27.17
		c-0.59,2.4-4.27,5.78-6.51,5.78c-56.73,0.24-113.46,0.1-170.19,0C307.59,69.6,306.24,69.37,304.91,69.04z"/>
	<path class="st0" d="M753.24,451.14c-1.53-2.53-3.34-4.88-5.4-7c-22.82-25.36-45.66-50.7-68.51-76.04
		c-31-34.56-62.08-69.28-93.23-104.16c-8.74-9.78-23.75-10.62-33.53-1.88c-0.7,0.63-1.36,1.29-1.98,2l-55.89,63.42
		c-4.6,5.2-6.69,12.15-5.73,19.03c9.2,64.7,55.72,116.67,122.16,126.17c42.23,6.05,85.79,3.23,128.77,3.53
		C753.47,476.28,759.81,463.17,753.24,451.14z"/>
</g>
</svg>
